# xmcd CD database file
#
# Track frame offsets:
#	150
#	14156
#	28526
#	39875
#	54731
#	70864
#	86770
#	101005
#	114768
#	127520
#
# Disc length: 1881 seconds
#
# Revision: 0
# Processed by: cddbd v1.5.2PL0 Copyright (c) Steve Scherf et al.
# Submitted via: CDex 1.86
#
DISCID=7607570a
DTITLE=Royal Wade KImes - Love Of A Cowboy
DYEAR=2017
DGENRE=Country
TTITLE0=Cowboy On The Loose
TTITLE1=Dust On My Heart
TTITLE2=Always On My Mind
TTITLE3=Healer Of Hearts
TTITLE4=Hello Lonely
TTITLE5=I'll Leave The Leavin' Up To You
TTITLE6=91 Miles From Heaven
TTITLE7=Might As Well Be Mars
TTITLE8=Maybr Tomorrow
TTITLE9=Sweet Memories
EXTD=YEAR: 2017
EXTT0=
EXTT1=
EXTT2=
EXTT3=
EXTT4=
EXTT5=
EXTT6=
EXTT7=
EXTT8=
EXTT9=
PLAYORDER=
